<svg xmlns="http://www.w3.org/2000/svg" xmlns:xlink="http://www.w3.org/1999/xlink" width="200" height="200" viewBox="0 0 200 200">
  <defs>
    <style>
      .cls-1 {
        opacity: 0.65;
        fill: url(#linear-gradient);
      }

      .cls-2, .cls-3 {
        fill: #4d4d4d;
      }

      .cls-2 {
        fill-rule: evenodd;
      }
    </style>
    <linearGradient id="linear-gradient" x1="175" y1="143.301" x2="25" y2="56.699" gradientUnits="userSpaceOnUse">
      <stop offset="0.055" stop-color="#3cfc81"/>
      <stop offset="0.945" stop-color="#fd971f"/>
    </linearGradient>
  </defs>
  <circle class="cls-1" cx="100" cy="100" r="75"/>
  <path class="cls-2" d="M67.578,50h65.783v2.83h2.82v2.83H139v78.3h-2.819V150H64.759c-1.32-3.873-1.01-10.7-.94-16.038H61V55.66h2.819V52.83h3.759V50Zm0,3.774V56.6H64.759v77.358h70.482V56.6h-2.819v-2.83H67.578Zm5.639,5.66h52.626v2.83H74.157V102.83h51.686V62.264H129.6V102.83h-2.819V106.6H73.217v-2.83H70.4V62.264h2.819v-2.83Zm33.831,58.491h19.735V121.7H107.048v-3.773Zm-30.072,2.83v3.773H70.4c0.35-1.958.227-1.815,0.94-2.83C72.67,120.792,74.414,120.777,76.976,120.755Zm-9.4,16.981v8.49h64.844v-8.49H67.578Z"/>
  <rect class="cls-3" x="97" y="96" width="2" height="2"/>
  <rect id="Rectangle_1_copy" data-name="Rectangle 1 copy" class="cls-3" x="89" y="96" width="2" height="2"/>
  <rect id="Rectangle_1_copy_2" data-name="Rectangle 1 copy 2" class="cls-3" x="85" y="96" width="2" height="2"/>
  <rect id="Rectangle_1_copy_3" data-name="Rectangle 1 copy 3" class="cls-3" x="93" y="96" width="2" height="2"/>
  <rect id="Rectangle_1_copy_4" data-name="Rectangle 1 copy 4" class="cls-3" x="97" y="92" width="2" height="2"/>
  <rect id="Rectangle_1_copy_5" data-name="Rectangle 1 copy 5" class="cls-3" x="89" y="92" width="2" height="2"/>
  <rect id="Rectangle_1_copy_6" data-name="Rectangle 1 copy 6" class="cls-3" x="85" y="92" width="2" height="2"/>
  <rect id="Rectangle_1_copy_7" data-name="Rectangle 1 copy 7" class="cls-3" x="93" y="92" width="2" height="2"/>
  <rect id="Rectangle_1_copy_8" data-name="Rectangle 1 copy 8" class="cls-3" x="97" y="88" width="2" height="2"/>
  <rect id="Rectangle_1_copy_9" data-name="Rectangle 1 copy 9" class="cls-3" x="89" y="88" width="2" height="2"/>
  <rect id="Rectangle_1_copy_10" data-name="Rectangle 1 copy 10" class="cls-3" x="85" y="88" width="2" height="2"/>
  <rect id="Rectangle_1_copy_11" data-name="Rectangle 1 copy 11" class="cls-3" x="93" y="88" width="2" height="2"/>
  <rect id="Rectangle_1_copy_12" data-name="Rectangle 1 copy 12" class="cls-3" x="97" y="84" width="2" height="2"/>
  <rect id="Rectangle_1_copy_13" data-name="Rectangle 1 copy 13" class="cls-3" x="89" y="84" width="2" height="2"/>
  <rect id="Rectangle_1_copy_14" data-name="Rectangle 1 copy 14" class="cls-3" x="85" y="84" width="2" height="2"/>
  <rect id="Rectangle_1_copy_15" data-name="Rectangle 1 copy 15" class="cls-3" x="93" y="84" width="2" height="2"/>
  <rect id="Rectangle_1_copy_16" data-name="Rectangle 1 copy 16" class="cls-3" x="97" y="80" width="2" height="2"/>
  <rect id="Rectangle_1_copy_17" data-name="Rectangle 1 copy 17" class="cls-3" x="89" y="80" width="2" height="2"/>
  <rect id="Rectangle_1_copy_18" data-name="Rectangle 1 copy 18" class="cls-3" x="85" y="80" width="2" height="2"/>
  <rect id="Rectangle_1_copy_19" data-name="Rectangle 1 copy 19" class="cls-3" x="93" y="80" width="2" height="2"/>
  <rect id="Rectangle_1_copy_20" data-name="Rectangle 1 copy 20" class="cls-3" x="97" y="76" width="2" height="2"/>
  <rect id="Rectangle_1_copy_21" data-name="Rectangle 1 copy 21" class="cls-3" x="89" y="76" width="2" height="2"/>
  <rect id="Rectangle_1_copy_22" data-name="Rectangle 1 copy 22" class="cls-3" x="85" y="76" width="2" height="2"/>
  <rect id="Rectangle_1_copy_23" data-name="Rectangle 1 copy 23" class="cls-3" x="93" y="76" width="2" height="2"/>
  <rect id="Rectangle_1_copy_24" data-name="Rectangle 1 copy 24" class="cls-3" x="97" y="72" width="2" height="2"/>
  <rect id="Rectangle_1_copy_25" data-name="Rectangle 1 copy 25" class="cls-3" x="89" y="72" width="2" height="2"/>
  <rect id="Rectangle_1_copy_26" data-name="Rectangle 1 copy 26" class="cls-3" x="85" y="72" width="2" height="2"/>
  <rect id="Rectangle_1_copy_27" data-name="Rectangle 1 copy 27" class="cls-3" x="93" y="72" width="2" height="2"/>
  <rect id="Rectangle_1_copy_28" data-name="Rectangle 1 copy 28" class="cls-3" x="97" y="68" width="2" height="2"/>
  <rect id="Rectangle_1_copy_29" data-name="Rectangle 1 copy 29" class="cls-3" x="89" y="68" width="2" height="2"/>
  <rect id="Rectangle_1_copy_30" data-name="Rectangle 1 copy 30" class="cls-3" x="85" y="68" width="2" height="2"/>
  <rect id="Rectangle_1_copy_31" data-name="Rectangle 1 copy 31" class="cls-3" x="93" y="68" width="2" height="2"/>
  <rect id="Rectangle_1_copy_32" data-name="Rectangle 1 copy 32" class="cls-3" x="97" y="96" width="2" height="2"/>
  <rect id="Rectangle_1_copy_33" data-name="Rectangle 1 copy 33" class="cls-3" x="89" y="96" width="2" height="2"/>
  <rect id="Rectangle_1_copy_34" data-name="Rectangle 1 copy 34" class="cls-3" x="85" y="96" width="2" height="2"/>
  <rect id="Rectangle_1_copy_35" data-name="Rectangle 1 copy 35" class="cls-3" x="93" y="96" width="2" height="2"/>
  <rect id="Rectangle_1_copy_36" data-name="Rectangle 1 copy 36" class="cls-3" x="97" y="92" width="2" height="2"/>
  <rect id="Rectangle_1_copy_37" data-name="Rectangle 1 copy 37" class="cls-3" x="89" y="92" width="2" height="2"/>
  <rect id="Rectangle_1_copy_38" data-name="Rectangle 1 copy 38" class="cls-3" x="85" y="92" width="2" height="2"/>
  <rect id="Rectangle_1_copy_39" data-name="Rectangle 1 copy 39" class="cls-3" x="93" y="92" width="2" height="2"/>
  <rect id="Rectangle_1_copy_40" data-name="Rectangle 1 copy 40" class="cls-3" x="97" y="88" width="2" height="2"/>
  <rect id="Rectangle_1_copy_41" data-name="Rectangle 1 copy 41" class="cls-3" x="89" y="88" width="2" height="2"/>
  <rect id="Rectangle_1_copy_42" data-name="Rectangle 1 copy 42" class="cls-3" x="85" y="88" width="2" height="2"/>
  <rect id="Rectangle_1_copy_43" data-name="Rectangle 1 copy 43" class="cls-3" x="93" y="88" width="2" height="2"/>
  <rect id="Rectangle_1_copy_44" data-name="Rectangle 1 copy 44" class="cls-3" x="97" y="84" width="2" height="2"/>
  <rect id="Rectangle_1_copy_45" data-name="Rectangle 1 copy 45" class="cls-3" x="89" y="84" width="2" height="2"/>
  <rect id="Rectangle_1_copy_46" data-name="Rectangle 1 copy 46" class="cls-3" x="85" y="84" width="2" height="2"/>
  <rect id="Rectangle_1_copy_47" data-name="Rectangle 1 copy 47" class="cls-3" x="93" y="84" width="2" height="2"/>
  <rect id="Rectangle_1_copy_48" data-name="Rectangle 1 copy 48" class="cls-3" x="97" y="80" width="2" height="2"/>
  <rect id="Rectangle_1_copy_49" data-name="Rectangle 1 copy 49" class="cls-3" x="89" y="80" width="2" height="2"/>
  <rect id="Rectangle_1_copy_50" data-name="Rectangle 1 copy 50" class="cls-3" x="85" y="80" width="2" height="2"/>
  <rect id="Rectangle_1_copy_51" data-name="Rectangle 1 copy 51" class="cls-3" x="93" y="80" width="2" height="2"/>
  <rect id="Rectangle_1_copy_52" data-name="Rectangle 1 copy 52" class="cls-3" x="97" y="76" width="2" height="2"/>
  <rect id="Rectangle_1_copy_53" data-name="Rectangle 1 copy 53" class="cls-3" x="89" y="76" width="2" height="2"/>
  <rect id="Rectangle_1_copy_54" data-name="Rectangle 1 copy 54" class="cls-3" x="85" y="76" width="2" height="2"/>
  <rect id="Rectangle_1_copy_55" data-name="Rectangle 1 copy 55" class="cls-3" x="93" y="76" width="2" height="2"/>
  <rect id="Rectangle_1_copy_56" data-name="Rectangle 1 copy 56" class="cls-3" x="97" y="72" width="2" height="2"/>
  <rect id="Rectangle_1_copy_57" data-name="Rectangle 1 copy 57" class="cls-3" x="89" y="72" width="2" height="2"/>
  <rect id="Rectangle_1_copy_58" data-name="Rectangle 1 copy 58" class="cls-3" x="85" y="72" width="2" height="2"/>
  <rect id="Rectangle_1_copy_59" data-name="Rectangle 1 copy 59" class="cls-3" x="93" y="72" width="2" height="2"/>
  <rect id="Rectangle_1_copy_60" data-name="Rectangle 1 copy 60" class="cls-3" x="97" y="68" width="2" height="2"/>
  <rect id="Rectangle_1_copy_61" data-name="Rectangle 1 copy 61" class="cls-3" x="89" y="68" width="2" height="2"/>
  <rect id="Rectangle_1_copy_62" data-name="Rectangle 1 copy 62" class="cls-3" x="85" y="68" width="2" height="2"/>
  <rect id="Rectangle_1_copy_63" data-name="Rectangle 1 copy 63" class="cls-3" x="93" y="68" width="2" height="2"/>
  <rect class="cls-3" x="113" y="96" width="2" height="2"/>
  <rect id="Rectangle_1_copy-2" data-name="Rectangle 1 copy" class="cls-3" x="105" y="96" width="2" height="2"/>
  <rect id="Rectangle_1_copy_2-2" data-name="Rectangle 1 copy 2" class="cls-3" x="101" y="96" width="2" height="2"/>
  <rect id="Rectangle_1_copy_3-2" data-name="Rectangle 1 copy 3" class="cls-3" x="109" y="96" width="2" height="2"/>
  <rect id="Rectangle_1_copy_4-2" data-name="Rectangle 1 copy 4" class="cls-3" x="113" y="92" width="2" height="2"/>
  <rect id="Rectangle_1_copy_5-2" data-name="Rectangle 1 copy 5" class="cls-3" x="105" y="92" width="2" height="2"/>
  <rect id="Rectangle_1_copy_6-2" data-name="Rectangle 1 copy 6" class="cls-3" x="101" y="92" width="2" height="2"/>
  <rect id="Rectangle_1_copy_7-2" data-name="Rectangle 1 copy 7" class="cls-3" x="109" y="92" width="2" height="2"/>
  <rect id="Rectangle_1_copy_8-2" data-name="Rectangle 1 copy 8" class="cls-3" x="113" y="88" width="2" height="2"/>
  <rect id="Rectangle_1_copy_9-2" data-name="Rectangle 1 copy 9" class="cls-3" x="105" y="88" width="2" height="2"/>
  <rect id="Rectangle_1_copy_10-2" data-name="Rectangle 1 copy 10" class="cls-3" x="101" y="88" width="2" height="2"/>
  <rect id="Rectangle_1_copy_11-2" data-name="Rectangle 1 copy 11" class="cls-3" x="109" y="88" width="2" height="2"/>
  <rect id="Rectangle_1_copy_12-2" data-name="Rectangle 1 copy 12" class="cls-3" x="113" y="84" width="2" height="2"/>
  <rect id="Rectangle_1_copy_13-2" data-name="Rectangle 1 copy 13" class="cls-3" x="105" y="84" width="2" height="2"/>
  <rect id="Rectangle_1_copy_14-2" data-name="Rectangle 1 copy 14" class="cls-3" x="101" y="84" width="2" height="2"/>
  <rect id="Rectangle_1_copy_15-2" data-name="Rectangle 1 copy 15" class="cls-3" x="109" y="84" width="2" height="2"/>
  <rect id="Rectangle_1_copy_16-2" data-name="Rectangle 1 copy 16" class="cls-3" x="113" y="80" width="2" height="2"/>
  <rect id="Rectangle_1_copy_17-2" data-name="Rectangle 1 copy 17" class="cls-3" x="105" y="80" width="2" height="2"/>
  <rect id="Rectangle_1_copy_18-2" data-name="Rectangle 1 copy 18" class="cls-3" x="101" y="80" width="2" height="2"/>
  <rect id="Rectangle_1_copy_19-2" data-name="Rectangle 1 copy 19" class="cls-3" x="109" y="80" width="2" height="2"/>
  <rect id="Rectangle_1_copy_20-2" data-name="Rectangle 1 copy 20" class="cls-3" x="113" y="76" width="2" height="2"/>
  <rect id="Rectangle_1_copy_21-2" data-name="Rectangle 1 copy 21" class="cls-3" x="105" y="76" width="2" height="2"/>
  <rect id="Rectangle_1_copy_22-2" data-name="Rectangle 1 copy 22" class="cls-3" x="101" y="76" width="2" height="2"/>
  <rect id="Rectangle_1_copy_23-2" data-name="Rectangle 1 copy 23" class="cls-3" x="109" y="76" width="2" height="2"/>
  <rect id="Rectangle_1_copy_24-2" data-name="Rectangle 1 copy 24" class="cls-3" x="113" y="72" width="2" height="2"/>
  <rect id="Rectangle_1_copy_25-2" data-name="Rectangle 1 copy 25" class="cls-3" x="105" y="72" width="2" height="2"/>
  <rect id="Rectangle_1_copy_26-2" data-name="Rectangle 1 copy 26" class="cls-3" x="101" y="72" width="2" height="2"/>
  <rect id="Rectangle_1_copy_27-2" data-name="Rectangle 1 copy 27" class="cls-3" x="109" y="72" width="2" height="2"/>
  <rect id="Rectangle_1_copy_28-2" data-name="Rectangle 1 copy 28" class="cls-3" x="113" y="68" width="2" height="2"/>
  <rect id="Rectangle_1_copy_29-2" data-name="Rectangle 1 copy 29" class="cls-3" x="105" y="68" width="2" height="2"/>
  <rect id="Rectangle_1_copy_30-2" data-name="Rectangle 1 copy 30" class="cls-3" x="101" y="68" width="2" height="2"/>
  <rect id="Rectangle_1_copy_31-2" data-name="Rectangle 1 copy 31" class="cls-3" x="109" y="68" width="2" height="2"/>
  <rect id="Rectangle_1_copy_32-2" data-name="Rectangle 1 copy 32" class="cls-3" x="113" y="96" width="2" height="2"/>
  <rect id="Rectangle_1_copy_33-2" data-name="Rectangle 1 copy 33" class="cls-3" x="105" y="96" width="2" height="2"/>
  <rect id="Rectangle_1_copy_34-2" data-name="Rectangle 1 copy 34" class="cls-3" x="101" y="96" width="2" height="2"/>
  <rect id="Rectangle_1_copy_35-2" data-name="Rectangle 1 copy 35" class="cls-3" x="109" y="96" width="2" height="2"/>
  <rect id="Rectangle_1_copy_36-2" data-name="Rectangle 1 copy 36" class="cls-3" x="113" y="92" width="2" height="2"/>
  <rect id="Rectangle_1_copy_37-2" data-name="Rectangle 1 copy 37" class="cls-3" x="105" y="92" width="2" height="2"/>
  <rect id="Rectangle_1_copy_38-2" data-name="Rectangle 1 copy 38" class="cls-3" x="101" y="92" width="2" height="2"/>
  <rect id="Rectangle_1_copy_39-2" data-name="Rectangle 1 copy 39" class="cls-3" x="109" y="92" width="2" height="2"/>
  <rect id="Rectangle_1_copy_40-2" data-name="Rectangle 1 copy 40" class="cls-3" x="113" y="88" width="2" height="2"/>
  <rect id="Rectangle_1_copy_41-2" data-name="Rectangle 1 copy 41" class="cls-3" x="105" y="88" width="2" height="2"/>
  <rect id="Rectangle_1_copy_42-2" data-name="Rectangle 1 copy 42" class="cls-3" x="101" y="88" width="2" height="2"/>
  <rect id="Rectangle_1_copy_43-2" data-name="Rectangle 1 copy 43" class="cls-3" x="109" y="88" width="2" height="2"/>
  <rect id="Rectangle_1_copy_44-2" data-name="Rectangle 1 copy 44" class="cls-3" x="113" y="84" width="2" height="2"/>
  <rect id="Rectangle_1_copy_45-2" data-name="Rectangle 1 copy 45" class="cls-3" x="105" y="84" width="2" height="2"/>
  <rect id="Rectangle_1_copy_46-2" data-name="Rectangle 1 copy 46" class="cls-3" x="101" y="84" width="2" height="2"/>
  <rect id="Rectangle_1_copy_47-2" data-name="Rectangle 1 copy 47" class="cls-3" x="109" y="84" width="2" height="2"/>
  <rect id="Rectangle_1_copy_48-2" data-name="Rectangle 1 copy 48" class="cls-3" x="113" y="80" width="2" height="2"/>
  <rect id="Rectangle_1_copy_49-2" data-name="Rectangle 1 copy 49" class="cls-3" x="105" y="80" width="2" height="2"/>
  <rect id="Rectangle_1_copy_50-2" data-name="Rectangle 1 copy 50" class="cls-3" x="101" y="80" width="2" height="2"/>
  <rect id="Rectangle_1_copy_51-2" data-name="Rectangle 1 copy 51" class="cls-3" x="109" y="80" width="2" height="2"/>
  <rect id="Rectangle_1_copy_52-2" data-name="Rectangle 1 copy 52" class="cls-3" x="113" y="76" width="2" height="2"/>
  <rect id="Rectangle_1_copy_53-2" data-name="Rectangle 1 copy 53" class="cls-3" x="105" y="76" width="2" height="2"/>
  <rect id="Rectangle_1_copy_54-2" data-name="Rectangle 1 copy 54" class="cls-3" x="101" y="76" width="2" height="2"/>
  <rect id="Rectangle_1_copy_55-2" data-name="Rectangle 1 copy 55" class="cls-3" x="109" y="76" width="2" height="2"/>
  <rect id="Rectangle_1_copy_56-2" data-name="Rectangle 1 copy 56" class="cls-3" x="113" y="72" width="2" height="2"/>
  <rect id="Rectangle_1_copy_57-2" data-name="Rectangle 1 copy 57" class="cls-3" x="105" y="72" width="2" height="2"/>
  <rect id="Rectangle_1_copy_58-2" data-name="Rectangle 1 copy 58" class="cls-3" x="101" y="72" width="2" height="2"/>
  <rect id="Rectangle_1_copy_59-2" data-name="Rectangle 1 copy 59" class="cls-3" x="109" y="72" width="2" height="2"/>
  <rect id="Rectangle_1_copy_60-2" data-name="Rectangle 1 copy 60" class="cls-3" x="113" y="68" width="2" height="2"/>
  <rect id="Rectangle_1_copy_61-2" data-name="Rectangle 1 copy 61" class="cls-3" x="105" y="68" width="2" height="2"/>
  <rect id="Rectangle_1_copy_62-2" data-name="Rectangle 1 copy 62" class="cls-3" x="101" y="68" width="2" height="2"/>
  <rect id="Rectangle_1_copy_63-2" data-name="Rectangle 1 copy 63" class="cls-3" x="109" y="68" width="2" height="2"/>
</svg>
