<svg xmlns="http://www.w3.org/2000/svg" viewBox="0 0 1026.76 884">
  <title>backgroundForest</title>
  <g id="background">
    <rect width="1025.76" height="884" style="fill: #829184"/>
  </g>
  <g id="hill">
    <path d="M411.87,160c108.56,26.49,188.35,89.81,201.41,165.87h412.48V156.24C958.2,95.53,846.81,55.88,720.84,55.88,592.32,55.88,479,97.15,411.87,160Z" transform="translate(1 58)" style="fill: #3d4f40"/>
  </g>
  <g id="grass">
    <g>
      <path d="M1025.76,325.82H613.28a130.18,130.18,0,0,1,1.9,22.07c0,111.16-141.91,201.27-317,201.27C160.93,549.16,44,493.72,0,416.18V826H1025.76Z" transform="translate(1 58)" style="fill: #929a5e"/>
      <path d="M298.23,549.16c175.05,0,317-90.11,317-201.27a130.18,130.18,0,0,0-1.9-22.07C600.22,249.76,520.44,186.44,411.87,160a480.68,480.68,0,0,0-113.64-13.34C160.93,146.62,44,202.06,0,279.61V416.18C44,493.72,160.93,549.16,298.23,549.16Z" transform="translate(1 58)" style="fill: #929a5e"/>
    </g>
  </g>
  <g id="tree1">
    <g>
      <circle cx="781.2" cy="348.23" r="127.57" style="fill: #4d6350"/>
      <polygon points="744.82 758.66 816.19 758.66 781.53 308.02 744.82 758.66" style="fill: #444"/>
      <polygon points="774.43 446 788.87 433.02 699.94 348.14 774.43 446" style="fill: #444"/>
      <polygon points="772.86 426.97 784.32 434.95 829.15 358.71 772.86 426.97" style="fill: #444"/>
    </g>
  </g>
  <g id="tree2">
    <circle cx="388.06" cy="424.51" r="124.94" style="fill: #4d6350"/>
    <polygon points="352.44 826.49 422.33 826.49 388.38 385.13 352.44 826.49" style="fill: #444"/>
    <polygon points="378.63 504.55 396.18 511.87 433.87 397.52 378.63 504.55" style="fill: #444"/>
    <polygon points="375.54 531.87 387.38 525.03 338.45 453.56 375.54 531.87" style="fill: #444"/>
  </g>
  <g id="tree3">
    <circle cx="168.17" cy="383.82" r="123.04" style="fill: #4d6350"/>
    <polygon points="133.08 779.68 201.92 779.68 168.49 345.04 133.08 779.68" style="fill: #444"/>
    <polygon points="160.87 452.8 177.08 443.44 110.09 345.61 160.87 452.8" style="fill: #444"/>
    <polygon points="169.11 464.79 175.85 476.45 246.23 428.26 169.11 464.79" style="fill: #444"/>
  </g>
</svg>
